<svg xmlns="http://www.w3.org/2000/svg" xmlns:xlink="http://www.w3.org/1999/xlink" width="500" zoomAndPan="magnify" viewBox="0 0 375 374.999991" height="500" preserveAspectRatio="xMidYMid meet" version="1.0"><defs><g/><clipPath id="id1"><path d="M 136 89.007812 L 137 89.007812 L 137 90 L 136 90 Z M 136 89.007812 " clip-rule="nonzero"/></clipPath><clipPath id="id2"><path d="M 15.425781 109 L 172.925781 109 L 172.925781 202.257812 L 15.425781 202.257812 Z M 15.425781 109 " clip-rule="nonzero"/></clipPath></defs><g clip-path="url(#id1)"><path fill="rgb(83.139038%, 10.978699%, 10.978699%)" d="M 136.097656 89.007812 L 136.078125 89.125 L 136.164062 89.152344 Z M 136.097656 89.007812 " fill-opacity="1" fill-rule="evenodd"/></g><path fill="rgb(83.139038%, 10.978699%, 10.978699%)" d="M 32.90625 160.746094 C 32.519531 160.074219 32.167969 159.386719 31.855469 158.675781 C 31.496094 157.851562 31.1875 157.003906 30.9375 156.136719 L 26.390625 156.0625 L 29.875 164.015625 Z M 32.90625 160.746094 " fill-opacity="1" fill-rule="evenodd"/><path fill="rgb(83.139038%, 10.978699%, 10.978699%)" d="M 155.703125 106.648438 L 155.785156 106.832031 L 155.808594 106.917969 C 155.96875 107.367188 156.121094 107.828125 156.253906 108.300781 L 160.910156 108.375 L 157.402344 100.351562 L 154.292969 103.6875 C 154.683594 104.359375 155.03125 105.046875 155.339844 105.757812 C 155.46875 106.050781 155.589844 106.347656 155.703125 106.648438 Z M 155.703125 106.648438 " fill-opacity="1" fill-rule="evenodd"/><path fill="rgb(83.139038%, 10.978699%, 10.978699%)" d="M 33.171875 132.488281 L 32.984375 132.367188 L 33.097656 132.625 Z M 33.171875 132.488281 " fill-opacity="1" fill-rule="evenodd"/><path fill="rgb(83.139038%, 10.978699%, 10.978699%)" d="M 110.570312 119.484375 C 114.890625 119.703125 119.800781 118.632812 124.324219 116.71875 C 129.277344 114.613281 133.773438 111.484375 136.523438 107.902344 C 139.066406 104.582031 139.753906 101.375 138.453125 98.875 C 137.15625 96.375 134.023438 94.867188 129.636719 94.648438 C 125.445312 94.433594 120.589844 95.410156 115.894531 97.414062 C 115.671875 97.503906 115.453125 97.601562 115.234375 97.691406 C 110.332031 99.878906 106.230469 102.914062 103.683594 106.230469 C 98.421875 113.082031 101.519531 119.023438 110.570312 119.484375 Z M 110.570312 119.484375 " fill-opacity="1" fill-rule="evenodd"/><path fill="rgb(83.139038%, 10.978699%, 10.978699%)" d="M 91.554688 127.152344 C 90.117188 127.730469 88.882812 128.601562 87.859375 129.769531 C 87.03125 130.804688 86.757812 131.8125 87.105469 132.617188 C 87.453125 133.417969 88.386719 133.921875 89.726562 134.027344 C 91.285156 134.097656 92.773438 133.8125 94.195312 133.175781 C 95.636719 132.601562 96.867188 131.726562 97.890625 130.558594 C 98.71875 129.527344 98.996094 128.515625 98.648438 127.710938 C 98.304688 126.90625 97.363281 126.410156 96.023438 126.304688 C 94.46875 126.234375 92.976562 126.515625 91.554688 127.152344 Z M 91.554688 127.152344 " fill-opacity="1" fill-rule="evenodd"/><path fill="rgb(83.139038%, 10.978699%, 10.978699%)" d="M 62.570312 126.5 C 67.335938 128.242188 74.445312 127.351562 80.96875 124.582031 C 84.007812 123.308594 86.8125 121.640625 89.378906 119.574219 C 97.175781 113.210938 97.835938 105.941406 90.847656 103.386719 C 87.460938 102.148438 82.804688 102.191406 77.742188 103.496094 C 75.933594 103.964844 74.167969 104.566406 72.449219 105.296875 C 69.40625 106.570312 66.601562 108.242188 64.035156 110.3125 C 60.257812 113.402344 58.027344 116.785156 57.746094 119.84375 C 57.46875 122.902344 59.1875 125.253906 62.570312 126.5 Z M 62.570312 126.5 " fill-opacity="1" fill-rule="evenodd"/><path fill="rgb(83.139038%, 10.978699%, 10.978699%)" d="M 38.703125 153.804688 C 38.847656 153.929688 38.980469 154.050781 39.148438 154.164062 C 39.386719 154.34375 39.636719 154.507812 39.898438 154.65625 C 40.152344 154.808594 40.414062 154.953125 40.695312 155.082031 C 41.738281 155.550781 42.820312 155.875 43.949219 156.054688 C 44.4375 156.132812 44.941406 156.199219 45.464844 156.238281 C 46.582031 156.328125 47.699219 156.332031 48.816406 156.257812 C 49.710938 156.199219 50.617188 156.101562 51.53125 155.953125 C 52.449219 155.808594 53.375 155.621094 54.292969 155.402344 C 56.191406 154.929688 58.039062 154.308594 59.839844 153.542969 C 60.136719 153.417969 60.433594 153.289062 60.726562 153.152344 C 61.609375 152.75 62.480469 152.316406 63.339844 151.84375 C 69.320312 148.539062 73.269531 144.230469 74.34375 140.390625 C 74.503906 139.835938 74.601562 139.273438 74.636719 138.695312 C 74.695312 137.882812 74.582031 137.089844 74.300781 136.324219 C 74.019531 135.554688 73.59375 134.878906 73.023438 134.296875 C 71.273438 132.484375 68.328125 131.53125 64.800781 131.425781 C 63.035156 131.382812 61.28125 131.507812 59.535156 131.808594 C 59.273438 131.855469 59.007812 131.902344 58.746094 131.953125 C 56.230469 132.445312 53.792969 133.195312 51.4375 134.203125 C 50.378906 134.652344 49.328125 135.15625 48.296875 135.710938 L 47.976562 135.882812 C 47.570312 136.105469 47.175781 136.339844 46.785156 136.570312 C 46.277344 136.878906 45.78125 137.191406 45.296875 137.515625 C 44.839844 137.824219 44.390625 138.136719 43.964844 138.457031 C 43.722656 138.640625 43.480469 138.824219 43.25 139.011719 C 42.902344 139.285156 42.566406 139.5625 42.242188 139.839844 C 41.535156 140.457031 40.867188 141.113281 40.234375 141.808594 C 39.789062 142.308594 39.378906 142.8125 39.003906 143.324219 C 38.816406 143.582031 38.640625 143.839844 38.472656 144.097656 C 38.308594 144.359375 38.105469 144.671875 37.945312 144.964844 C 37.886719 145.074219 37.832031 145.183594 37.777344 145.292969 C 37.699219 145.449219 37.621094 145.605469 37.550781 145.757812 C 37.390625 146.09375 37.25 146.4375 37.128906 146.789062 C 36.234375 149.371094 36.628906 151.675781 38.300781 153.40625 C 38.425781 153.554688 38.5625 153.679688 38.703125 153.804688 Z M 38.703125 153.804688 " fill-opacity="1" fill-rule="evenodd"/><path fill="rgb(83.139038%, 10.978699%, 10.978699%)" d="M 90.675781 141.679688 C 87.625 142.128906 84.679688 142.957031 81.839844 144.171875 C 79.917969 144.988281 78.078125 145.960938 76.320312 147.085938 C 71.964844 149.882812 68.890625 153.210938 67.648438 156.460938 C 65.09375 163.175781 71.273438 167.457031 81.425781 166.011719 C 84.480469 165.558594 87.425781 164.722656 90.261719 163.507812 C 97.007812 160.640625 102.6875 155.945312 104.476562 151.21875 C 105.714844 147.964844 104.964844 145.183594 102.363281 143.378906 C 99.761719 141.574219 95.59375 140.976562 90.675781 141.679688 Z M 90.675781 141.679688 " fill-opacity="1" fill-rule="evenodd"/><path fill="rgb(83.139038%, 10.978699%, 10.978699%)" d="M 129.332031 119.515625 C 126.507812 119.992188 123.777344 120.796875 121.140625 121.921875 C 114.167969 124.882812 108.382812 129.792969 106.785156 134.636719 C 104.574219 141.277344 111.125 145.339844 121.355469 143.660156 C 124.191406 143.183594 126.929688 142.378906 129.570312 141.25 C 131.699219 140.347656 133.722656 139.253906 135.644531 137.972656 C 139.910156 135.117188 142.84375 131.765625 143.902344 128.542969 C 144.960938 125.320312 144.039062 122.605469 141.289062 120.898438 C 138.539062 119.195312 134.292969 118.703125 129.332031 119.515625 Z M 129.332031 119.515625 " fill-opacity="1" fill-rule="evenodd"/><g clip-path="url(#id2)"><path fill="rgb(83.139038%, 10.978699%, 10.978699%)" d="M 172.363281 142.796875 C 173.320312 138.183594 172.738281 135.050781 172.15625 130.503906 L 162.84375 109 L 163.027344 117.851562 L 162.824219 118.851562 L 161.941406 119.34375 L 155.617188 122.78125 L 155.511719 123.101562 C 155.421875 123.355469 155.332031 123.617188 155.234375 123.875 C 154.917969 124.726562 154.558594 125.597656 154.164062 126.46875 L 154.070312 126.679688 L 153.960938 126.902344 C 153.546875 127.78125 153.089844 128.667969 152.601562 129.550781 L 154.859375 130.984375 L 156.847656 132.296875 L 155.492188 134.210938 C 155.269531 134.523438 155.039062 134.84375 154.808594 135.15625 C 154.117188 136.101562 153.371094 137.054688 152.601562 138.003906 C 151.570312 139.257812 150.460938 140.515625 149.3125 141.742188 L 148.84375 142.238281 L 141.109375 143.945312 C 138.265625 146.652344 135.261719 149.164062 132.101562 151.488281 L 132.035156 151.539062 L 132.367188 155.996094 L 131.289062 156.714844 C 130.890625 156.976562 130.488281 157.242188 130.082031 157.5 C 127.253906 159.332031 124.261719 161.097656 121.195312 162.746094 L 120.640625 163.042969 L 119.910156 163 L 114.308594 162.167969 C 112.929688 162.84375 111.550781 163.476562 110.152344 164.105469 L 109.9375 164.199219 C 109.433594 164.421875 108.933594 164.636719 108.429688 164.851562 C 106.21875 165.792969 104.011719 166.65625 101.722656 167.480469 L 98.148438 172.546875 L 97.4375 172.773438 C 96.960938 172.921875 96.484375 173.070312 96.007812 173.210938 C 95.058594 173.488281 94.097656 173.78125 93.148438 174.042969 C 92.3125 174.273438 91.476562 174.5 90.640625 174.710938 C 90.054688 174.863281 89.464844 175.011719 88.878906 175.152344 C 87.9375 175.378906 86.988281 175.59375 86.058594 175.792969 L 84.796875 176.070312 L 81.707031 172.75 C 80.019531 173.027344 78.320312 173.261719 76.640625 173.449219 C 74.355469 173.703125 72.09375 173.875 69.914062 173.953125 L 63.410156 178.277344 L 62.710938 178.277344 C 62.300781 178.277344 61.882812 178.261719 61.484375 178.25 L 61.425781 178.25 C 60.828125 178.226562 60.234375 178.203125 59.640625 178.167969 L 58.945312 178.125 C 56.878906 177.988281 54.863281 177.765625 52.953125 177.472656 L 50.585938 177.101562 L 51.527344 172.152344 C 49.144531 171.527344 46.835938 170.6875 44.605469 169.636719 L 44.539062 169.605469 L 36.765625 172.058594 L 35.867188 171.488281 C 33.238281 169.828125 31.683594 167.992188 29.515625 165.78125 L 38.503906 187.480469 C 40.277344 188.953125 42.089844 190.667969 43.910156 192.253906 C 26.5625 193.28125 15.476562 194.851562 15.476562 196.597656 C 15.476562 199.714844 50.714844 202.257812 93.917969 202.257812 C 137.125 202.257812 172.363281 199.714844 172.363281 196.597656 C 172.363281 193.929688 146.523438 191.679688 111.972656 191.089844 C 114.238281 190.277344 116.503906 189.394531 118.746094 188.441406 C 120.859375 187.546875 122.953125 186.589844 125 185.582031 L 131.3125 186.441406 C 134.859375 184.542969 138.289062 182.492188 141.597656 180.289062 L 141.269531 175.875 C 144.816406 173.332031 148.164062 170.554688 151.308594 167.53125 L 159.058594 165.753906 C 161.304688 163.378906 163.378906 160.851562 165.269531 158.183594 L 162.824219 152.59375 C 163.808594 150.714844 164.617188 148.757812 165.246094 146.734375 L 165.15625 146.519531 L 165.25 146.734375 Z M 172.363281 142.796875 " fill-opacity="1" fill-rule="evenodd"/></g><g fill="rgb(83.139038%, 10.978699%, 10.978699%)" fill-opacity="1"><g transform="translate(203.095128, 145.817275)"><g><path d="M 2.578125 0 L 23.21875 0 L 23.21875 -5.160156 L 7.738281 -5.160156 L 7.738281 -15.480469 L 23.21875 -15.480469 L 23.21875 -20.640625 L 7.738281 -20.640625 L 7.738281 -30.960938 L 23.21875 -30.960938 L 23.21875 -36.121094 L 2.578125 -36.121094 Z M 23.21875 -5.160156 L 28.378906 -5.160156 L 28.378906 -15.480469 L 23.21875 -15.480469 Z M 23.21875 -20.640625 L 28.378906 -20.640625 L 28.378906 -30.960938 L 23.21875 -30.960938 Z M 23.21875 -20.640625 "/></g></g></g><g fill="rgb(83.139038%, 10.978699%, 10.978699%)" fill-opacity="1"><g transform="translate(234.053717, 145.817275)"><g><path d="M 2.578125 0 L 7.738281 0 L 7.738281 -10.320312 L 23.21875 -10.320312 L 23.21875 0 L 28.378906 0 L 28.378906 -30.960938 L 23.21875 -30.960938 L 23.21875 -15.480469 L 7.738281 -15.480469 L 7.738281 -30.960938 L 2.578125 -30.960938 Z M 7.738281 -30.960938 L 23.21875 -30.960938 L 23.21875 -36.121094 L 7.738281 -36.121094 Z M 7.738281 -30.960938 "/></g></g></g><g fill="rgb(83.139038%, 10.978699%, 10.978699%)" fill-opacity="1"><g transform="translate(265.012307, 145.817275)"><g><path d="M 2.578125 0 L 23.21875 0 L 23.21875 -5.160156 L 7.738281 -5.160156 L 7.738281 -15.480469 L 23.21875 -15.480469 L 23.21875 -20.640625 L 7.738281 -20.640625 L 7.738281 -30.960938 L 23.21875 -30.960938 L 23.21875 -36.121094 L 2.578125 -36.121094 Z M 23.21875 -5.160156 L 28.378906 -5.160156 L 28.378906 -15.480469 L 23.21875 -15.480469 Z M 23.21875 -20.640625 L 28.378906 -20.640625 L 28.378906 -30.960938 L 23.21875 -30.960938 Z M 23.21875 -20.640625 "/></g></g></g><g fill="rgb(83.139038%, 10.978699%, 10.978699%)" fill-opacity="1"><g transform="translate(295.970896, 145.817275)"><g><path d="M 23.21875 -5.160156 L 7.738281 -5.160156 L 7.738281 0 L 23.21875 0 Z M 2.578125 -5.160156 L 7.738281 -5.160156 L 7.738281 -30.960938 L 2.578125 -30.960938 Z M 7.738281 -30.960938 L 23.21875 -30.960938 L 23.21875 -36.121094 L 7.738281 -36.121094 Z M 18.058594 -15.480469 L 23.21875 -15.480469 L 23.21875 -5.160156 L 28.378906 -5.160156 L 28.378906 -20.640625 L 18.058594 -20.640625 Z M 23.21875 -25.800781 L 28.378906 -25.800781 L 28.378906 -30.960938 L 23.21875 -30.960938 Z M 23.21875 -25.800781 "/></g></g></g><g fill="rgb(83.139038%, 10.978699%, 10.978699%)" fill-opacity="1"><g transform="translate(165.269643, 177.787284)"><g><path d="M 2.730469 0.0195312 L 5.125 0.0195312 L 5.125 -6.601562 L 8.84375 -6.601562 C 11.609375 -6.601562 13.855469 -8.84375 13.855469 -11.609375 C 13.855469 -14.398438 11.609375 -16.640625 8.84375 -16.640625 L 0.746094 -16.640625 L 0.746094 -14.230469 L 2.730469 -14.230469 Z M 5.125 -8.992188 L 5.125 -14.230469 L 8.84375 -14.230469 C 10.285156 -14.230469 11.460938 -13.050781 11.460938 -11.609375 C 11.460938 -10.171875 10.285156 -8.992188 8.84375 -8.992188 Z M 5.125 -8.992188 "/></g></g></g><g fill="rgb(83.139038%, 10.978699%, 10.978699%)" fill-opacity="1"><g transform="translate(183.308413, 177.787284)"><g><path d="M 2.730469 0 L 5.125 0 L 5.125 -6.601562 L 7.234375 -6.601562 L 11.929688 0 L 14.828125 0 L 10.058594 -6.769531 L 10.171875 -6.789062 C 12.339844 -7.367188 13.855469 -9.367188 13.855469 -11.609375 C 13.855469 -14.398438 11.609375 -16.660156 8.84375 -16.660156 L 0.746094 -16.660156 L 0.746094 -14.246094 L 2.730469 -14.246094 Z M 5.125 -9.011719 L 5.125 -14.246094 L 8.84375 -14.246094 C 10.285156 -14.246094 11.460938 -13.070312 11.460938 -11.609375 C 11.460938 -10.191406 10.285156 -9.011719 8.84375 -9.011719 Z M 5.125 -9.011719 "/></g></g></g><g fill="rgb(83.139038%, 10.978699%, 10.978699%)" fill-opacity="1"><g transform="translate(202.31913, 177.787284)"><g><path d="M 9.085938 -0.0546875 C 13.6875 -0.0546875 17.445312 -3.796875 17.445312 -8.414062 C 17.445312 -12.996094 13.6875 -16.734375 9.085938 -16.734375 C 4.488281 -16.734375 0.746094 -12.996094 0.746094 -8.414062 C 0.746094 -3.796875 4.46875 -0.0546875 9.085938 -0.0546875 Z M 9.085938 -2.449219 C 5.796875 -2.449219 3.140625 -5.125 3.140625 -8.414062 C 3.140625 -11.6875 5.796875 -14.324219 9.085938 -14.324219 C 12.339844 -14.324219 15.015625 -11.667969 15.015625 -8.414062 C 15.015625 -5.125 12.359375 -2.449219 9.085938 -2.449219 Z M 9.085938 -2.449219 "/></g></g></g><g fill="rgb(83.139038%, 10.978699%, 10.978699%)" fill-opacity="1"><g transform="translate(223.946651, 177.787284)"><g><path d="M 2.617188 0 L 7.890625 0 C 12.472656 0 16.191406 -3.722656 16.191406 -8.300781 C 16.191406 -12.921875 12.488281 -16.660156 7.929688 -16.660156 L 0.746094 -16.660156 L 0.746094 -14.246094 L 2.65625 -14.246094 Z M 5.046875 -2.355469 L 5.046875 -14.246094 L 7.929688 -14.246094 C 11.164062 -14.246094 13.796875 -11.574219 13.796875 -8.300781 C 13.796875 -5.03125 11.164062 -2.355469 7.929688 -2.355469 Z M 5.046875 -2.355469 "/></g></g></g><g fill="rgb(83.139038%, 10.978699%, 10.978699%)" fill-opacity="1"><g transform="translate(244.321848, 177.787284)"><g><path d="M 8.207031 0.0195312 C 12.320312 0.0195312 15.648438 -3.722656 15.648438 -8.320312 L 15.648438 -16.660156 L 13.257812 -16.660156 L 13.257812 -8.320312 C 13.257812 -5.046875 10.976562 -2.375 8.207031 -2.375 C 5.421875 -2.375 3.140625 -5.046875 3.140625 -8.320312 L 3.140625 -16.660156 L 0.746094 -16.660156 L 0.746094 -8.320312 C 0.746094 -3.722656 4.09375 0.0195312 8.207031 0.0195312 Z M 8.207031 0.0195312 "/></g></g></g><g fill="rgb(83.139038%, 10.978699%, 10.978699%)" fill-opacity="1"><g transform="translate(264.15499, 177.787284)"><g><path d="M 9.160156 0.09375 C 11.050781 0.09375 12.976562 -0.578125 14.472656 -1.777344 L 12.921875 -3.628906 C 11.855469 -2.785156 10.507812 -2.300781 9.160156 -2.300781 C 5.832031 -2.300781 3.140625 -5.011719 3.140625 -8.339844 C 3.140625 -11.648438 5.832031 -14.324219 9.160156 -14.324219 C 10.507812 -14.324219 11.855469 -13.875 12.9375 -13.03125 L 14.453125 -14.882812 C 12.9375 -16.0625 11.050781 -16.734375 9.160156 -16.734375 C 4.507812 -16.734375 0.746094 -12.957031 0.746094 -8.339844 C 0.746094 -3.683594 4.507812 0.09375 9.160156 0.09375 Z M 9.160156 0.09375 "/></g></g></g><g fill="rgb(83.139038%, 10.978699%, 10.978699%)" fill-opacity="1"><g transform="translate(282.810575, 177.787284)"><g><path d="M 5.460938 0 L 7.851562 0 L 7.851562 -14.246094 L 12.527344 -14.246094 L 12.527344 -16.660156 L 0.746094 -16.660156 L 0.746094 -14.246094 L 5.460938 -14.246094 Z M 5.460938 0 "/></g></g></g><g fill="rgb(83.139038%, 10.978699%, 10.978699%)" fill-opacity="1"><g transform="translate(299.522256, 177.787284)"><g><path d="M 0.746094 0 L 6.078125 0 L 6.078125 -2.394531 L 4.617188 -2.394531 L 4.617188 -14.246094 L 6.078125 -14.246094 L 6.078125 -16.660156 L 0.746094 -16.660156 L 0.746094 -14.246094 L 2.207031 -14.246094 L 2.207031 -2.394531 L 0.746094 -2.394531 Z M 0.746094 0 "/></g></g></g><g fill="rgb(83.139038%, 10.978699%, 10.978699%)" fill-opacity="1"><g transform="translate(309.785397, 177.787284)"><g><path d="M 9.085938 -0.0546875 C 13.6875 -0.0546875 17.445312 -3.796875 17.445312 -8.414062 C 17.445312 -12.996094 13.6875 -16.734375 9.085938 -16.734375 C 4.488281 -16.734375 0.746094 -12.996094 0.746094 -8.414062 C 0.746094 -3.796875 4.46875 -0.0546875 9.085938 -0.0546875 Z M 9.085938 -2.449219 C 5.796875 -2.449219 3.140625 -5.125 3.140625 -8.414062 C 3.140625 -11.6875 5.796875 -14.324219 9.085938 -14.324219 C 12.339844 -14.324219 15.015625 -11.667969 15.015625 -8.414062 C 15.015625 -5.125 12.359375 -2.449219 9.085938 -2.449219 Z M 9.085938 -2.449219 "/></g></g></g><g fill="rgb(83.139038%, 10.978699%, 10.978699%)" fill-opacity="1"><g transform="translate(331.41292, 177.787284)"><g><path d="M 0.746094 0 L 3.140625 0 L 3.140625 -13.125 L 13.011719 0 L 15.761719 0 L 15.761719 -16.660156 L 13.367188 -16.660156 L 13.367188 -3.535156 L 3.496094 -16.660156 L 0.746094 -16.660156 Z M 0.746094 0 "/></g></g></g><g fill="rgb(83.139038%, 10.978699%, 10.978699%)" fill-opacity="1"><g transform="translate(351.358208, 177.787284)"><g><path d="M 6.695312 0 C 9.984375 0 12.660156 -2.1875 12.660156 -4.878906 C 12.660156 -6.957031 11.199219 -8.789062 9.125 -9.328125 C 8.5625 -9.480469 7.777344 -9.59375 6.957031 -9.722656 C 5.945312 -9.871094 5.273438 -9.984375 4.898438 -10.097656 C 3.871094 -10.378906 3.179688 -11.21875 3.179688 -12.191406 C 3.179688 -13.519531 4.75 -14.640625 6.695312 -14.640625 C 8.5625 -14.640625 10.117188 -13.613281 10.207031 -12.226562 L 12.527344 -13.257812 C 11.910156 -15.5 9.460938 -17.070312 6.695312 -17.070312 C 3.421875 -17.070312 0.746094 -14.882812 0.746094 -12.191406 C 0.746094 -10.152344 2.1875 -8.339844 4.226562 -7.742188 C 4.785156 -7.589844 5.609375 -7.441406 6.582031 -7.3125 C 7.386719 -7.199219 8.097656 -7.066406 8.507812 -6.972656 C 9.5 -6.710938 10.207031 -5.832031 10.207031 -4.878906 C 10.207031 -3.550781 8.636719 -2.429688 6.695312 -2.429688 C 4.414062 -2.429688 2.691406 -3.964844 3.289062 -5.515625 L 0.804688 -5.515625 C 0.335938 -2.5625 3.121094 0 6.695312 0 Z M 6.695312 0 "/></g></g></g></svg>